<svg xmlns="http://www.w3.org/2000/svg" xmlns:xlink="http://www.w3.org/1999/xlink" viewBox="0,0,256,256" width="144px" height="144px" fill-rule="nonzero"><g fill="#cf6b6b" fill-rule="nonzero" stroke="none" stroke-width="1" stroke-linecap="butt" stroke-linejoin="miter" stroke-miterlimit="10" stroke-dasharray="" stroke-dashoffset="0" font-family="none" font-weight="none" font-size="none" text-anchor="none" style="mix-blend-mode: normal"><g transform="scale(5.33333,5.33333)"><path d="M41.9,16c-0.2,-0.5 -0.6,-0.9 -0.9,-1.3c-1.2,-1.4 -2.1,-3.3 -3.3,-4.7c-0.3,0 -0.5,0 -0.7,0.1c-0.339,0.085 -1.325,0.385 -2.41,0.718c-0.292,0.09 -0.59,-0.128 -0.59,-0.435v-0.928c0,-0.251 -0.204,-0.455 -0.455,-0.455h-5.061c-0.262,0 -0.47,0.221 -0.455,0.483l0.147,2.433c0.013,0.222 -0.137,0.422 -0.353,0.472c-0.928,0.214 -1.763,0.393 -2.28,0.501c-0.282,0.058 -0.543,-0.159 -0.543,-0.448v-8.333c0,-0.071 0.016,-0.14 0.048,-0.204l0.622,-1.245c0.152,-0.303 -0.068,-0.659 -0.407,-0.659h-5.459c-0.33,0 -0.551,0.341 -0.415,0.642l0.571,1.269c0.026,0.059 0.04,0.122 0.04,0.187v10.684c0,0.138 -0.058,0.265 -0.166,0.352c-0.787,0.63 -2.226,1.786 -3.115,2.421c-0.302,0.216 -0.719,-0.001 -0.719,-0.372v-12.075c0,-0.071 0.016,-0.14 0.048,-0.204l0.622,-1.245c0.152,-0.303 -0.068,-0.659 -0.407,-0.659h-5.526c-0.339,0 -0.559,0.356 -0.407,0.659l0.622,1.245c0.032,0.063 0.048,0.133 0.048,0.204v12.892c0,0 -0.4,-0.1 -0.6,-0.2c-0.9,-0.4 -1.7,-0.9 -2.5,-1.4c-0.3,-0.2 -0.6,-0.4 -0.8,-0.7c0.7,-0.4 1.1,-1 1.8,-1.4c0.1,0 0.1,-0.2 0.1,-0.3c-1.1,0.2 -1.9,0.6 -3,1v0.1c0.2,0.6 0.5,1.1 0.9,1.6c0.4,0.6 0.8,1.2 1.5,1.5c0.82,0.455 1.556,1.159 2.436,1.584c0.158,0.076 0.264,0.229 0.264,0.404v7.605c0,0.071 -0.016,0.14 -0.048,0.204l-0.622,1.245c-0.151,0.303 0.069,0.659 0.407,0.659h5.526c0.339,0 0.559,-0.356 0.407,-0.659l-0.622,-1.245c-0.032,-0.063 -0.048,-0.133 -0.048,-0.204v-7.645c0,-0.205 0.138,-0.375 0.335,-0.432c1.016,-0.295 2.024,-0.926 2.946,-1.586c0.302,-0.216 0.719,-0.001 0.719,0.37v11.394c0,0.071 -0.016,0.14 -0.048,0.204l-0.622,1.245c-0.152,0.301 0.068,0.657 0.407,0.657h5.526c0.339,0 0.559,-0.356 0.407,-0.659l-0.622,-1.245c-0.032,-0.063 -0.048,-0.133 -0.048,-0.204v-14.604c0,-0.183 0.105,-0.351 0.274,-0.419c0.472,-0.189 1.397,-0.465 2.47,-0.796c0.282,-0.087 0.573,0.113 0.59,0.408l0.519,8.733c0.021,0.35 -0.345,0.591 -0.658,0.434l-1.295,-0.648l2,10l-2,-1l2.415,12.88c0.097,0.517 0.848,0.485 0.901,-0.039l0.684,-6.841l1,2v-8.9c0,-0.406 0.491,-0.609 0.777,-0.322l0.445,0.445c0.287,0.286 0.778,0.083 0.778,-0.323v-5.48c0,-0.433 0.549,-0.622 0.815,-0.28c0.477,0.612 0.931,1.216 1.185,1.66c0.1,0.1 0.3,0.1 0.4,0.1c0.7,-0.1 2,-0.3 2.6,-0.5c1,-0.3 1.7,-0.5 2.4,-1.2c0,0 0.3,-0.9 0.2,-0.9c0.2,-2.3 0.2,-4.8 0.3,-7.1c0.1,-0.4 0.2,-0.8 0,-1.2zM37,24c0,0.1 -0.9,1.2 -1,1c-0.369,-0.461 -1.418,-1.347 -1.893,-1.875c-0.074,-0.082 -0.107,-0.186 -0.107,-0.296v-9.774c0,-0.208 0.144,-0.387 0.345,-0.439c0.82,-0.212 1.717,-0.529 2.155,-0.617h0.1c0.1,0 0.2,0 0.3,0.1c0.1,0.1 0.1,0.2 0.1,0.4c0.4,1.9 0.5,3.8 0.6,5.7c0,0.4 0,0.9 0.1,1.3c0,1.001 -0.7,4.501 -0.7,4.501z"></path></g></g></svg>